<svg xmlns="http://www.w3.org/2000/svg" width="1200" height="630" viewBox="0 0 1200 630">
  <defs>
    <linearGradient id="bg" x1="0" y1="0" x2="0" y2="1">
      <stop offset="0" stop-color="#06080f"/>
      <stop offset="0.55" stop-color="#01030a"/>
      <stop offset="1" stop-color="#000000"/>
    </linearGradient>
    <radialGradient id="glow" cx="50%" cy="35%" r="78%">
      <stop offset="0" stop-color="#0ea5e9" stop-opacity="0.22"/>
      <stop offset="1" stop-color="#000000" stop-opacity="0"/>
    </radialGradient>
    <filter id="grain" x="-20%" y="-20%" width="140%" height="140%">
      <feTurbulence type="fractalNoise" baseFrequency="0.85" numOctaves="3" stitchTiles="stitch" result="n"/>
      <feColorMatrix in="n" type="saturate" values="0" result="g"/>
      <feComponentTransfer in="g" result="a">
        <feFuncA type="table" tableValues="0 0.09"/>
      </feComponentTransfer>
    </filter>
    <filter id="softGlow" x="-40%" y="-40%" width="180%" height="180%">
      <feGaussianBlur stdDeviation="2.2" result="b"/>
      <feMerge>
        <feMergeNode in="b"/>
        <feMergeNode in="SourceGraphic"/>
      </feMerge>
    </filter>
  </defs>

  <rect width="1200" height="630" fill="url(#bg)"/>
  <rect width="1200" height="630" fill="url(#glow)"/>
  <rect width="1200" height="630" filter="url(#grain)" opacity="0.40"/>

  <g filter="url(#softGlow)" fill="none" stroke-linecap="round" stroke-linejoin="round">
    <path d="M 0.00,288.64 L 12.00,292.33 L 24.00,295.58 L 36.00,298.32 L 48.00,300.52 L 60.00,302.15 L 72.00,303.20 L 84.00,303.65 L 96.00,303.52 L 108.00,302.80 L 120.00,301.52 L 132.00,299.69 L 144.00,297.35 L 156.00,294.53 L 168.00,291.25 L 180.00,287.57 L 192.00,283.52 L 204.00,279.14 L 216.00,274.47 L 228.00,269.55 L 240.00,264.42 L 252.00,259.12 L 264.00,253.70 L 276.00,248.18 L 288.00,242.62 L 300.00,237.05 L 312.00,231.51 L 324.00,226.04 L 336.00,220.68 L 348.00,215.47 L 360.00,210.45 L 372.00,205.65 L 384.00,201.13 L 396.00,196.91 L 408.00,193.05 L 420.00,189.58 L 432.00,186.54 L 444.00,183.95 L 456.00,181.87 L 468.00,180.31 L 480.00,179.30 L 492.00,178.86 L 504.00,178.99 L 516.00,179.71 L 528.00,181.00 L 540.00,182.86 L 552.00,185.25 L 564.00,188.14 L 576.00,191.50 L 588.00,195.25 L 600.00,199.35 L 612.00,203.73 L 624.00,208.30 L 636.00,212.98 L 648.00,217.71 L 660.00,222.39 L 672.00,226.94 L 684.00,231.30 L 696.00,235.39 L 708.00,239.15 L 720.00,242.55 L 732.00,245.53 L 744.00,248.09 L 756.00,250.21 L 768.00,251.88 L 780.00,253.13 L 792.00,253.98 L 804.00,254.47 L 816.00,254.62 L 828.00,254.48 L 840.00,254.11 L 852.00,253.56 L 864.00,252.86 L 876.00,252.06 L 888.00,251.21 L 900.00,250.33 L 912.00,249.47 L 924.00,248.63 L 936.00,247.84 L 948.00,247.10 L 960.00,246.43 L 972.00,245.81 L 984.00,245.24 L 996.00,244.70 L 1008.00,244.19 L 1020.00,243.69 L 1032.00,243.17 L 1044.00,242.62 L 1056.00,242.03 L 1068.00,241.36 L 1080.00,240.61 L 1092.00,239.75 L 1104.00,238.78 L 1116.00,237.69 L 1128.00,236.45 L 1140.00,235.07 L 1152.00,233.53 L 1164.00,231.85 L 1176.00,230.01 L 1188.00,228.02 L 1200.00,225.90" stroke="#38bdf8" stroke-width="4.2" opacity="0.1"/>
    <path d="M 0.00,301.07 L 16.00,305.01 L 32.00,307.01 L 48.00,306.46 L 64.00,303.32 L 80.00,298.16 L 96.00,291.99 L 112.00,286.07 L 128.00,281.61 L 144.00,279.52 L 160.00,280.21 L 176.00,283.58 L 192.00,289.04 L 208.00,295.62 L 224.00,302.24 L 240.00,307.81 L 256.00,311.50 L 272.00,312.77 L 288.00,311.49 L 304.00,307.90 L 320.00,302.55 L 336.00,296.23 L 352.00,289.80 L 368.00,284.13 L 384.00,279.96 L 400.00,277.79 L 416.00,277.87 L 432.00,280.16 L 448.00,284.31 L 464.00,289.74 L 480.00,295.70 L 496.00,301.35 L 512.00,305.91 L 528.00,308.74 L 544.00,309.46 L 560.00,308.00 L 576.00,304.66 L 592.00,300.00 L 608.00,294.85 L 624.00,290.08 L 640.00,286.52 L 656.00,284.75 L 672.00,284.98 L 688.00,287.04 L 704.00,290.40 L 720.00,294.29 L 736.00,297.86 L 752.00,300.41 L 768.00,301.51 L 784.00,301.10 L 800.00,299.46 L 816.00,297.12 L 832.00,294.71 L 848.00,292.77 L 864.00,291.64 L 880.00,291.44 L 896.00,292.03 L 912.00,293.14 L 928.00,294.43 L 944.00,295.60 L 960.00,296.45 L 976.00,296.89 L 992.00,296.92 L 1008.00,296.60 L 1024.00,296.03 L 1040.00,295.31 L 1056.00,294.52 L 1072.00,293.77 L 1088.00,293.16 L 1104.00,292.78 L 1120.00,292.73 L 1136.00,293.07 L 1152.00,293.81 L 1168.00,294.91 L 1184.00,296.26 L 1200.00,297.67" stroke="hsl(200 85% 70%)" stroke-width="3.2" opacity="0.12"/>
    <path d="M 0.00,332.23 L 16.00,332.43 L 32.00,331.07 L 48.00,328.26 L 64.00,324.29 L 80.00,319.54 L 96.00,314.47 L 112.00,309.54 L 128.00,305.18 L 144.00,301.73 L 160.00,299.45 L 176.00,298.51 L 192.00,298.94 L 208.00,300.70 L 224.00,303.64 L 240.00,307.54 L 256.00,312.15 L 272.00,317.14 L 288.00,322.20 L 304.00,326.97 L 320.00,331.16 L 336.00,334.47 L 352.00,336.66 L 368.00,337.56 L 384.00,337.10 L 400.00,335.27 L 416.00,332.20 L 432.00,328.11 L 448.00,323.31 L 464.00,318.22 L 480.00,313.28 L 496.00,308.96 L 512.00,305.67 L 528.00,303.75 L 544.00,303.38 L 560.00,304.56 L 576.00,307.13 L 592.00,310.72 L 608.00,314.86 L 624.00,319.01 L 640.00,322.63 L 656.00,325.29 L 672.00,326.73 L 688.00,326.85 L 704.00,325.80 L 720.00,323.86 L 736.00,321.41 L 752.00,318.88 L 768.00,316.64 L 784.00,314.96 L 800.00,313.97 L 816.00,313.68 L 832.00,314.00 L 848.00,314.75 L 864.00,315.75 L 880.00,316.82 L 896.00,317.82 L 912.00,318.65 L 928.00,319.29 L 944.00,319.72 L 960.00,319.97 L 976.00,320.04 L 992.00,319.97 L 1008.00,319.77 L 1024.00,319.44 L 1040.00,318.99 L 1056.00,318.40 L 1072.00,317.69 L 1088.00,316.87 L 1104.00,315.99 L 1120.00,315.09 L 1136.00,314.25 L 1152.00,313.53 L 1168.00,313.03 L 1184.00,312.83 L 1200.00,313.00" stroke="hsl(204 85% 70%)" stroke-width="3.02" opacity="0.16499999999999998"/>
    <path d="M 0.00,356.74 L 16.00,355.00 L 32.00,352.52 L 48.00,349.43 L 64.00,345.87 L 80.00,342.00 L 96.00,337.99 L 112.00,334.00 L 128.00,330.18 L 144.00,326.68 L 160.00,323.64 L 176.00,321.18 L 192.00,319.40 L 208.00,318.41 L 224.00,318.26 L 240.00,318.99 L 256.00,320.62 L 272.00,323.12 L 288.00,326.41 L 304.00,330.39 L 320.00,334.89 L 336.00,339.69 L 352.00,344.54 L 368.00,349.15 L 384.00,353.22 L 400.00,356.48 L 416.00,358.66 L 432.00,359.58 L 448.00,359.17 L 464.00,357.44 L 480.00,354.54 L 496.00,350.74 L 512.00,346.37 L 528.00,341.87 L 544.00,337.65 L 560.00,334.10 L 576.00,331.51 L 592.00,330.05 L 608.00,329.78 L 624.00,330.59 L 640.00,332.28 L 656.00,334.55 L 672.00,337.10 L 688.00,339.62 L 704.00,341.86 L 720.00,343.64 L 736.00,344.87 L 752.00,345.55 L 768.00,345.72 L 784.00,345.47 L 800.00,344.94 L 816.00,344.22 L 832.00,343.43 L 848.00,342.64 L 864.00,341.90 L 880.00,341.25 L 896.00,340.68 L 912.00,340.19 L 928.00,339.76 L 944.00,339.38 L 960.00,339.04 L 976.00,338.72 L 992.00,338.42 L 1008.00,338.17 L 1024.00,337.97 L 1040.00,337.85 L 1056.00,337.84 L 1072.00,337.98 L 1088.00,338.30 L 1104.00,338.83 L 1120.00,339.59 L 1136.00,340.60 L 1152.00,341.85 L 1168.00,343.32 L 1184.00,344.97 L 1200.00,346.73" stroke="hsl(208 85% 70%)" stroke-width="2.8400000000000003" opacity="0.21"/>
    <path d="M 0.00,379.41 L 16.00,377.36 L 32.00,374.91 L 48.00,372.10 L 64.00,368.98 L 80.00,365.61 L 96.00,362.06 L 112.00,358.41 L 128.00,354.76 L 144.00,351.21 L 160.00,347.88 L 176.00,344.90 L 192.00,342.41 L 208.00,340.54 L 224.00,339.44 L 240.00,339.21 L 256.00,339.94 L 272.00,341.67 L 288.00,344.38 L 304.00,348.00 L 320.00,352.38 L 336.00,357.29 L 352.00,362.47 L 368.00,367.59 L 384.00,372.32 L 400.00,376.34 L 416.00,379.38 L 432.00,381.23 L 448.00,381.81 L 464.00,381.13 L 480.00,379.31 L 496.00,376.58 L 512.00,373.22 L 528.00,369.55 L 544.00,365.91 L 560.00,362.57 L 576.00,359.77 L 592.00,357.64 L 608.00,356.25 L 624.00,355.59 L 640.00,355.57 L 656.00,356.08 L 672.00,356.98 L 688.00,358.13 L 704.00,359.38 L 720.00,360.63 L 736.00,361.79 L 752.00,362.82 L 768.00,363.69 L 784.00,364.39 L 800.00,364.94 L 816.00,365.35 L 832.00,365.66 L 848.00,365.89 L 864.00,366.08 L 880.00,366.25 L 896.00,366.40 L 912.00,366.56 L 928.00,366.73 L 944.00,366.89 L 960.00,367.04 L 976.00,367.17 L 992.00,367.24 L 1008.00,367.23 L 1024.00,367.10 L 1040.00,366.82 L 1056.00,366.36 L 1072.00,365.68 L 1088.00,364.76 L 1104.00,363.58 L 1120.00,362.14 L 1136.00,360.48 L 1152.00,358.62 L 1168.00,356.67 L 1184.00,354.72 L 1200.00,352.92" stroke="hsl(212 85% 70%)" stroke-width="2.66" opacity="0.255"/>
    <path d="M 0.00,401.29 L 16.00,398.78 L 32.00,395.87 L 48.00,392.59 L 64.00,388.98 L 80.00,385.12 L 96.00,381.08 L 112.00,377.00 L 128.00,373.00 L 144.00,369.25 L 160.00,365.94 L 176.00,363.24 L 192.00,361.34 L 208.00,360.39 L 224.00,360.51 L 240.00,361.76 L 256.00,364.14 L 272.00,367.57 L 288.00,371.87 L 304.00,376.81 L 320.00,382.11 L 336.00,387.44 L 352.00,392.47 L 368.00,396.89 L 384.00,400.46 L 400.00,403.01 L 416.00,404.44 L 432.00,404.77 L 448.00,404.08 L 464.00,402.54 L 480.00,400.34 L 496.00,397.72 L 512.00,394.90 L 528.00,392.09 L 544.00,389.46 L 560.00,387.13 L 576.00,385.18 L 592.00,383.66 L 608.00,382.55 L 624.00,381.83 L 640.00,381.46 L 656.00,381.37 L 672.00,381.49 L 688.00,381.78 L 704.00,382.17 L 720.00,382.62 L 736.00,383.08 L 752.00,383.53 L 768.00,383.96 L 784.00,384.34 L 800.00,384.68 L 816.00,384.98 L 832.00,385.25 L 848.00,385.49 L 864.00,385.73 L 880.00,385.98 L 896.00,386.27 L 912.00,386.61 L 928.00,387.04 L 944.00,387.56 L 960.00,388.20 L 976.00,388.98 L 992.00,389.89 L 1008.00,390.93 L 1024.00,392.08 L 1040.00,393.30 L 1056.00,394.54 L 1072.00,395.72 L 1088.00,396.75 L 1104.00,397.51 L 1120.00,397.88 L 1136.00,397.75 L 1152.00,397.01 L 1168.00,395.58 L 1184.00,393.43 L 1200.00,390.58" stroke="hsl(216 85% 70%)" stroke-width="2.4800000000000004" opacity="0.3"/>
    <path d="M 0.00,416.57 L 16.00,412.54 L 32.00,408.20 L 48.00,403.64 L 64.00,399.02 L 80.00,394.52 L 96.00,390.35 L 112.00,386.70 L 128.00,383.81 L 144.00,381.85 L 160.00,380.98 L 176.00,381.29 L 192.00,382.82 L 208.00,385.50 L 224.00,389.20 L 240.00,393.73 L 256.00,398.83 L 272.00,404.19 L 288.00,409.51 L 304.00,414.52 L 320.00,418.95 L 336.00,422.62 L 352.00,425.40 L 368.00,427.25 L 384.00,428.18 L 400.00,428.26 L 416.00,427.61 L 432.00,426.38 L 448.00,424.73 L 464.00,422.80 L 480.00,420.73 L 496.00,418.65 L 512.00,416.66 L 528.00,414.82 L 544.00,413.18 L 560.00,411.76 L 576.00,410.58 L 592.00,409.62 L 608.00,408.87 L 624.00,408.31 L 640.00,407.91 L 656.00,407.64 L 672.00,407.47 L 688.00,407.37 L 704.00,407.33 L 720.00,407.31 L 736.00,407.31 L 752.00,407.29 L 768.00,407.26 L 784.00,407.19 L 800.00,407.08 L 816.00,406.93 L 832.00,406.74 L 848.00,406.52 L 864.00,406.28 L 880.00,406.04 L 896.00,405.84 L 912.00,405.70 L 928.00,405.68 L 944.00,405.83 L 960.00,406.19 L 976.00,406.83 L 992.00,407.77 L 1008.00,409.06 L 1024.00,410.70 L 1040.00,412.68 L 1056.00,414.93 L 1072.00,417.37 L 1088.00,419.87 L 1104.00,422.28 L 1120.00,424.42 L 1136.00,426.10 L 1152.00,427.14 L 1168.00,427.39 L 1184.00,426.74 L 1200.00,425.15" stroke="hsl(220 85% 70%)" stroke-width="2.3000000000000003" opacity="0.345"/>
    <path d="M 0.00,418.46 L 16.00,413.74 L 32.00,409.48 L 48.00,405.92 L 64.00,403.24 L 80.00,401.62 L 96.00,401.18 L 112.00,401.96 L 128.00,403.94 L 144.00,407.02 L 160.00,411.02 L 176.00,415.74 L 192.00,420.90 L 208.00,426.24 L 224.00,431.49 L 240.00,436.42 L 256.00,440.84 L 272.00,444.59 L 288.00,447.60 L 304.00,449.82 L 320.00,451.28 L 336.00,452.03 L 352.00,452.16 L 368.00,451.76 L 384.00,450.93 L 400.00,449.80 L 416.00,448.45 L 432.00,446.97 L 448.00,445.44 L 464.00,443.92 L 480.00,442.44 L 496.00,441.05 L 512.00,439.77 L 528.00,438.60 L 544.00,437.55 L 560.00,436.62 L 576.00,435.81 L 592.00,435.11 L 608.00,434.51 L 624.00,434.00 L 640.00,433.56 L 656.00,433.19 L 672.00,432.87 L 688.00,432.59 L 704.00,432.32 L 720.00,432.06 L 736.00,431.79 L 752.00,431.49 L 768.00,431.14 L 784.00,430.73 L 800.00,430.26 L 816.00,429.70 L 832.00,429.08 L 848.00,428.40 L 864.00,427.69 L 880.00,426.99 L 896.00,426.35 L 912.00,425.85 L 928.00,425.54 L 944.00,425.53 L 960.00,425.89 L 976.00,426.69 L 992.00,427.97 L 1008.00,429.77 L 1024.00,432.05 L 1040.00,434.76 L 1056.00,437.81 L 1072.00,441.07 L 1088.00,444.37 L 1104.00,447.54 L 1120.00,450.40 L 1136.00,452.78 L 1152.00,454.56 L 1168.00,455.62 L 1184.00,455.90 L 1200.00,455.41" stroke="hsl(224 85% 70%)" stroke-width="2.12" opacity="0.39"/>
    <path d="M 0.00,421.51 L 16.00,421.41 L 32.00,422.51 L 48.00,424.75 L 64.00,428.01 L 80.00,432.10 L 96.00,436.83 L 112.00,441.95 L 128.00,447.22 L 144.00,452.41 L 160.00,457.33 L 176.00,461.81 L 192.00,465.74 L 208.00,469.04 L 224.00,471.69 L 240.00,473.68 L 256.00,475.06 L 272.00,475.88 L 288.00,476.20 L 304.00,476.10 L 320.00,475.67 L 336.00,474.96 L 352.00,474.05 L 368.00,472.99 L 384.00,471.84 L 400.00,470.63 L 416.00,469.41 L 432.00,468.19 L 448.00,467.00 L 464.00,465.84 L 480.00,464.75 L 496.00,463.71 L 512.00,462.74 L 528.00,461.84 L 544.00,461.01 L 560.00,460.25 L 576.00,459.57 L 592.00,458.96 L 608.00,458.41 L 624.00,457.92 L 640.00,457.48 L 656.00,457.09 L 672.00,456.71 L 688.00,456.34 L 704.00,455.95 L 720.00,455.52 L 736.00,455.03 L 752.00,454.45 L 768.00,453.78 L 784.00,453.00 L 800.00,452.11 L 816.00,451.13 L 832.00,450.10 L 848.00,449.06 L 864.00,448.09 L 880.00,447.27 L 896.00,446.68 L 912.00,446.42 L 928.00,446.56 L 944.00,447.19 L 960.00,448.33 L 976.00,450.00 L 992.00,452.19 L 1008.00,454.84 L 1024.00,457.85 L 1040.00,461.14 L 1056.00,464.57 L 1072.00,468.02 L 1088.00,471.36 L 1104.00,474.48 L 1120.00,477.29 L 1136.00,479.71 L 1152.00,481.71 L 1168.00,483.25 L 1184.00,484.34 L 1200.00,484.99" stroke="hsl(228 85% 70%)" stroke-width="1.9400000000000002" opacity="0.435"/>
    <path d="M 0.00,456.80 L 16.00,461.76 L 32.00,466.91 L 48.00,472.06 L 64.00,477.03 L 80.00,481.66 L 96.00,485.86 L 112.00,489.53 L 128.00,492.65 L 144.00,495.19 L 160.00,497.19 L 176.00,498.65 L 192.00,499.65 L 208.00,500.22 L 224.00,500.42 L 240.00,500.31 L 256.00,499.95 L 272.00,499.38 L 288.00,498.64 L 304.00,497.78 L 320.00,496.82 L 336.00,495.80 L 352.00,494.73 L 368.00,493.64 L 384.00,492.54 L 400.00,491.44 L 416.00,490.36 L 432.00,489.30 L 448.00,488.28 L 464.00,487.29 L 480.00,486.35 L 496.00,485.47 L 512.00,484.64 L 528.00,483.87 L 544.00,483.16 L 560.00,482.51 L 576.00,481.93 L 592.00,481.40 L 608.00,480.91 L 624.00,480.45 L 640.00,480.00 L 656.00,479.54 L 672.00,479.03 L 688.00,478.46 L 704.00,477.80 L 720.00,477.03 L 736.00,476.14 L 752.00,475.13 L 768.00,474.03 L 784.00,472.86 L 800.00,471.69 L 816.00,470.58 L 832.00,469.60 L 848.00,468.84 L 864.00,468.37 L 880.00,468.26 L 896.00,468.56 L 912.00,469.31 L 928.00,470.51 L 944.00,472.15 L 960.00,474.19 L 976.00,476.58 L 992.00,479.23 L 1008.00,482.09 L 1024.00,485.08 L 1040.00,488.10 L 1056.00,491.11 L 1072.00,494.04 L 1088.00,496.84 L 1104.00,499.47 L 1120.00,501.92 L 1136.00,504.16 L 1152.00,506.20 L 1168.00,508.02 L 1184.00,509.64 L 1200.00,511.06" stroke="hsl(232 85% 70%)" stroke-width="1.7600000000000002" opacity="0.48"/>
  </g>

  <text x="72" y="170" fill="#f5f5f7" font-size="78" font-family="Helvetica-Bold, Helvetica, Arial, sans-serif" font-weight="700">waves</text>
  <text x="76" y="212" fill="#9aa0a6" font-size="20" font-family="Courier, monospace" opacity="0.85">waves.sdan.io</text>
</svg>
